<svg width="234" height="44" viewBox="0 0 234 44" fill="none" xmlns="http://www.w3.org/2000/svg">
<path d="M27.0459 0.999997H34.9659V43H27.0459V24.94H8.32594V43H0.465938V0.999997H8.32594V18.04H27.0459V0.999997ZM62.4895 43.48C51.2695 43.48 41.6095 36.28 41.6095 22C41.6095 7.72 51.4495 0.52 62.4895 0.52C72.5695 0.52 80.3095 6.46 81.4495 15.16H73.1095C72.5095 10.54 68.0695 7.36 62.4295 7.36C55.1095 7.36 49.6495 12.46 49.6495 22C49.6495 31.54 55.1095 36.58 62.4295 36.58C68.1895 36.58 72.6295 33.4 73.3495 28.84H81.2695C80.4295 37.54 72.7495 43.48 62.4895 43.48ZM94.4948 43C89.9348 43 87.4748 40.54 87.4748 35.98V0.999997H95.3348V36.1H115.015V43H94.4948ZM138.539 43.48C128.279 43.48 118.559 36.58 118.559 22C118.559 7.42 128.339 0.52 138.539 0.52C147.299 0.52 154.679 6.1 155.819 13.66H151.619C150.839 8.26 145.259 4.24 138.539 4.24C129.239 4.24 122.759 10.54 122.759 22C122.759 33.46 129.239 39.76 138.539 39.76C145.439 39.76 151.019 35.74 151.619 30.34H155.819C154.859 37.9 147.479 43.48 138.539 43.48ZM163.732 43V0.999997H175.612C187.432 0.999997 196.372 8.86 196.372 22C196.372 35.14 187.432 43 175.612 43H163.732ZM167.752 39.28H175.732C184.252 39.28 192.112 34.06 192.112 22C192.112 9.94 184.252 4.72 175.732 4.72H167.752V39.28ZM204.689 43V0.999997H220.109C228.209 0.999997 233.249 5.92 233.249 13.18C233.249 20.44 228.209 25.36 220.109 25.36H208.709V43H204.689ZM208.709 21.64H220.229C226.649 21.64 228.989 17.62 228.989 13.18C228.989 8.74 226.649 4.72 220.229 4.72H208.709V21.64Z" fill="#3376D1"/>
</svg>
